  0
SECTION
  2
HEADER
  9
$ACADVER
  1
AC1015
  9
$ACADMAINTVER
 70
     6
  9
$DWGCODEPAGE
  3
ANSI_1252
  9
$INSBASE
 10
0.0
 20
0.0
 30
0.0
  9
$EXTMIN
 10
-1048.7074100382
 20
-1048.6955684376
 30
0.0
  9
$EXTMAX
 10
1048.9924384529
 20
1051.1159467201
 30
0.0
  9
$LIMMIN
 10
0.0
 20
0.0
  9
$LIMMAX
 10
420.0
 20
297.0
  9
$ORTHOMODE
 70
     0
  9
$REGENMODE
 70
     1
  9
$FILLMODE
 70
     1
  9
$QTEXTMODE
 70
     0
  9
$MIRRTEXT
 70
     1
  9
$LTSCALE
 40
1.0
  9
$ATTMODE
 70
     1
  9
$TEXTSIZE
 40
3.5
  9
$TRACEWID
 40
1.0
  9
$TEXTSTYLE
  7
Standard
  9
$CLAYER
  8
0
  9
$CELTYPE
  6
ByLayer
  9
$CECOLOR
 62
   256
  9
$CELTSCALE
 40
1.0
  9
$DISPSILH
 70
     0
  9
$DIMSCALE
 40
1.0
  9
$DIMASZ
 40
3.302
  9
$DIMEXO
 40
1.0
  9
$DIMDLI
 40
3.75
  9
$DIMRND
 40
0.0
  9
$DIMDLE
 40
0.0
  9
$DIMEXE
 40
1.0
  9
$DIMTP
 40
0.0
  9
$DIMTM
 40
0.0
  9
$DIMTXT
 40
3.5
  9
$DIMCEN
 40
2.5
  9
$DIMTSZ
 40
0.0
  9
$DIMTOL
 70
     0
  9
$DIMLIM
 70
     0
  9
$DIMTIH
 70
     1
  9
$DIMTOH
 70
     1
  9
$DIMSE1
 70
     0
  9
$DIMSE2
 70
     0
  9
$DIMTAD
 70
     1
  9
$DIMZIN
 70
     0
  9
$DIMBLK
  1

  9
$DIMASO
 70
     1
  9
$DIMSHO
 70
     1
  9
$DIMPOST
  1

  9
$DIMAPOST
  1

  9
$DIMALT
 70
     0
  9
$DIMALTD
 70
     3
  9
$DIMALTF
 40
0.0393700787
  9
$DIMLFAC
 40
1.0
  9
$DIMTOFL
 70
     1
  9
$DIMTVP
 40
0.0
  9
$DIMTIX
 70
     0
  9
$DIMSOXD
 70
     0
  9
$DIMSAH
 70
     0
  9
$DIMBLK1
  1

  9
$DIMBLK2
  1

  9
$DIMSTYLE
  2
ISO-25
  9
$DIMCLRD
 70
     0
  9
$DIMCLRE
 70
     0
  9
$DIMCLRT
 70
     0
  9
$DIMTFAC
 40
1.0
  9
$DIMGAP
 40
1.524
  9
$DIMJUST
 70
     0
  9
$DIMSD1
 70
     0
  9
$DIMSD2
 70
     0
  9
$DIMTOLJ
 70
     0
  9
$DIMTZIN
 70
     0
  9
$DIMALTZ
 70
     0
  9
$DIMALTTZ
 70
     0
  9
$DIMUPT
 70
     0
  9
$DIMDEC
 70
     2
  9
$DIMTDEC
 70
     2
  9
$DIMALTU
 70
     2
  9
$DIMALTTD
 70
     3
  9
$DIMTXSTY
  7
Standard
  9
$DIMAUNIT
 70
     0
  9
$DIMADEC
 70
     2
  9
$DIMALTRND
 40
0.0
  9
$DIMAZIN
 70
     0
  9
$DIMDSEP
 70
    44
  9
$DIMATFIT
 70
     3
  9
$DIMFRAC
 70
     0
  9
$DIMLDRBLK
  1

  9
$DIMLUNIT
 70
     2
  9
$DIMLWD
 70
    -2
  9
$DIMLWE
 70
    -2
  9
$DIMTMOVE
 70
     0
  9
$LUNITS
 70
     2
  9
$LUPREC
 70
     2
  9
$SKETCHINC
 40
1.0
  9
$FILLETRAD
 40
10.0
  9
$AUNITS
 70
     0
  9
$AUPREC
 70
     2
  9
$MENU
  1
.
  9
$ELEVATION
 40
0.0
  9
$PELEVATION
 40
0.0
  9
$THICKNESS
 40
0.0
  9
$LIMCHECK
 70
     0
  9
$CHAMFERA
 40
0.0
  9
$CHAMFERB
 40
0.0
  9
$CHAMFERC
 40
0.0
  9
$CHAMFERD
 40
0.0
  9
$SKPOLY
 70
     0
  9
$TDCREATE
 40
2458636.013525555
  9
$TDUCREATE
 40
2458636.138525555
  9
$TDUPDATE
 40
2458636.013840833
  9
$TDUUPDATE
 40
2458636.138840833
  9
$TDINDWG
 40
0.0000000116
  9
$TDUSRTIMER
 40
0.0000000116
  9
$USRTIMER
 70
     1
  9
$ANGBASE
 50
0.0
  9
$ANGDIR
 70
     0
  9
$PDMODE
 70
     0
  9
$PDSIZE
 40
-1.0
  9
$PLINEWID
 40
0.0
  9
$SPLFRAME
 70
     0
  9
$SPLINETYPE
 70
     6
  9
$SPLINESEGS
 70
     8
  9
$HANDSEED
  5
8E
  9
$SURFTAB1
 70
     6
  9
$SURFTAB2
 70
     6
  9
$SURFTYPE
 70
     6
  9
$SURFU
 70
     6
  9
$SURFV
 70
     6
  9
$UCSBASE
  2

  9
$UCSNAME
  2

  9
$UCSORG
 10
0.0
 20
0.0
 30
0.0
  9
$UCSXDIR
 10
1.0
 20
0.0
 30
0.0
  9
$UCSYDIR
 10
0.0
 20
1.0
 30
0.0
  9
$UCSORTHOREF
  2

  9
$UCSORTHOVIEW
 70
     0
  9
$UCSORGTOP
 10
0.0
 20
0.0
 30
0.0
  9
$UCSORGBOTTOM
 10
0.0
 20
0.0
 30
0.0
  9
$UCSORGLEFT
 10
0.0
 20
0.0
 30
0.0
  9
$UCSORGRIGHT
 10
0.0
 20
0.0
 30
0.0
  9
$UCSORGFRONT
 10
0.0
 20
0.0
 30
0.0
  9
$UCSORGBACK
 10
0.0
 20
0.0
 30
0.0
  9
$PUCSBASE
  2

  9
$PUCSNAME
  2

  9
$PUCSORG
 10
0.0
 20
0.0
 30
0.0
  9
$PUCSXDIR
 10
1.0
 20
0.0
 30
0.0
  9
$PUCSYDIR
 10
0.0
 20
1.0
 30
0.0
  9
$PUCSORTHOREF
  2

  9
$PUCSORTHOVIEW
 70
     0
  9
$PUCSORGTOP
 10
0.0
 20
0.0
 30
0.0
  9
$PUCSORGBOTTOM
 10
0.0
 20
0.0
 30
0.0
  9
$PUCSORGLEFT
 10
0.0
 20
0.0
 30
0.0
  9
$PUCSORGRIGHT
 10
0.0
 20
0.0
 30
0.0
  9
$PUCSORGFRONT
 10
0.0
 20
0.0
 30
0.0
  9
$PUCSORGBACK
 10
0.0
 20
0.0
 30
0.0
  9
$USERI1
 70
     0
  9
$USERI2
 70
     0
  9
$USERI3
 70
     0
  9
$USERI4
 70
     0
  9
$USERI5
 70
     0
  9
$USERR1
 40
0.0
  9
$USERR2
 40
0.0
  9
$USERR3
 40
0.0
  9
$USERR4
 40
0.0
  9
$USERR5
 40
0.0
  9
$WORLDVIEW
 70
     1
  9
$SHADEDGE
 70
     3
  9
$SHADEDIF
 70
    70
  9
$TILEMODE
 70
     1
  9
$MAXACTVP
 70
    64
  9
$PINSBASE
 10
0.0
 20
0.0
 30
0.0
  9
$PLIMCHECK
 70
     0
  9
$PEXTMIN
 10
1.0000000000E+20
 20
1.0000000000E+20
 30
1.0000000000E+20
  9
$PEXTMAX
 10
-1.0000000000E+20
 20
-1.0000000000E+20
 30
-1.0000000000E+20
  9
$PLIMMIN
 10
0.0
 20
0.0
  9
$PLIMMAX
 10
420.0
 20
297.0
  9
$UNITMODE
 70
     0
  9
$VISRETAIN
 70
     1
  9
$PLINEGEN
 70
     0
  9
$PSLTSCALE
 70
     1
  9
$TREEDEPTH
 70
  3020
  9
$CMLSTYLE
  2
Standard
  9
$CMLJUST
 70
     0
  9
$CMLSCALE
 40
20.0
  9
$PROXYGRAPHICS
 70
     1
  9
$MEASUREMENT
 70
     1
  9
$CELWEIGHT
370
    -1
  9
$ENDCAPS
280
     0
  9
$JOINSTYLE
280
     0
  9
$LWDISPLAY
290
     1
  9
$INSUNITS
 70
     4
  9
$HYPERLINKBASE
  1

  9
$STYLESHEET
  1

  9
$XEDIT
290
     1
  9
$CEPSNTYPE
380
     0
  9
$PSTYLEMODE
290
     1
  9
$FINGERPRINTGUID
  2
{18CB43D9-6751-463A-9D09-5DD78F536102}
  9
$VERSIONGUID
  2
{FAEB1C32-E019-11D5-929B-00C0DF256EC4}
  9
$EXTNAMES
290
     1
  9
$PSVPSCALE
 40
0.0
  9
$OLESTARTUP
290
     0
  0
ENDSEC
  0
SECTION
  2
CLASSES
  0
CLASS
  1
ACDBDICTIONARYWDFLT
  2
AcDbDictionaryWithDefault
  3
ObjectDBX Classes
 90
        0
280
     0
281
     0
  0
CLASS
  1
VISUALSTYLE
  2
AcDbVisualStyle
  3
ObjectDBX Classes
 90
     4095
280
     0
281
     0
  0
CLASS
  1
MATERIAL
  2
AcDbMaterial
  3
ObjectDBX Classes
 90
     1153
280
     0
281
     0
  0
CLASS
  1
SCALE
  2
AcDbScale
  3
ObjectDBX Classes
 90
     1153
280
     0
281
     0
  0
CLASS
  1
TABLESTYLE
  2
AcDbTableStyle
  3
ObjectDBX Classes
 90
     4095
280
     0
281
     0
  0
CLASS
  1
MLEADERSTYLE
  2
AcDbMLeaderStyle
  3
ACDB_MLEADERSTYLE_CLASS
 90
     4095
280
     0
281
     0
  0
CLASS
  1
SUN
  2
AcDbSun
  3
SCENEOE
 90
     1153
280
     0
281
     0
  0
CLASS
  1
ACDBPLACEHOLDER
  2
AcDbPlaceHolder
  3
ObjectDBX Classes
 90
        0
280
     0
281
     0
  0
CLASS
  1
LAYOUT
  2
AcDbLayout
  3
ObjectDBX Classes
 90
        0
280
     0
281
     0
  0
ENDSEC
  0
SECTION
  2
TABLES
  0
TABLE
  2
VPORT
  5
8
330
0
100
AcDbSymbolTable
 70
     1
  0
VPORT
  5
29
330
8
100
AcDbSymbolTableRecord
100
AcDbViewportTableRecord
  2
*Active
 70
     0
 10
0.0
 20
0.0
 11
1.0
 21
1.0
 12
0.1425142074
 22
1.2101891413
 13
0.0
 23
0.0
 14
10.0
 24
10.0
 15
10.0
 25
10.0
 16
0.0
 26
0.0
 36
1.0
 17
0.0
 27
0.0
 37
0.0
 40
2141.8077454609
 41
0.9989943542
 42
50.0
 43
0.0
 44
0.0
 50
0.0
 51
0.0
 71
     0
 72
   100
 73
     1
 74
     3
 75
     0
 76
     0
 77
     0
 78
     0
281
     0
 65
     1
110
0.0
120
0.0
130
0.0
111
1.0
121
0.0
131
0.0
112
0.0
122
1.0
132
0.0
 79
     0
146
0.0
  0
ENDTAB
  0
TABLE
  2
LTYPE
  5
5
330
0
100
AcDbSymbolTable
 70
     6
  0
LTYPE
  5
14
330
5
100
AcDbSymbolTableRecord
100
AcDbLinetypeTableRecord
  2
ByBlock
 70
     0
  3

 72
    65
 73
     0
 40
0.0
  0
LTYPE
  5
15
330
5
100
AcDbSymbolTableRecord
100
AcDbLinetypeTableRecord
  2
ByLayer
 70
     0
  3

 72
    65
 73
     0
 40
0.0
  0
LTYPE
  5
16
330
5
100
AcDbSymbolTableRecord
100
AcDbLinetypeTableRecord
  2
Continuous
 70
     0
  3
Solid line
 72
    65
 73
     0
 40
0.0
  0
LTYPE
  5
6E
330
5
100
AcDbSymbolTableRecord
100
AcDbLinetypeTableRecord
  2
HIDDEN
 70
     0
  3
Hidden __ __ __ __ __ __ __ __ __ __ __ __ __ __
 72
    65
 73
     2
 40
1.905
 49
1.27
 74
     0
 49
-0.635
 74
     0
  0
LTYPE
  5
6F
330
5
100
AcDbSymbolTableRecord
100
AcDbLinetypeTableRecord
  2
PHANTOM
 70
     0
  3
Phantom ______  __  __  ______  __  __  ______
 72
    65
 73
     6
 40
12.7
 49
6.35
 74
     0
 49
-1.27
 74
     0
 49
1.27
 74
     0
 49
-1.27
 74
     0
 49
1.27
 74
     0
 49
-1.27
 74
     0
  0
LTYPE
  5
70
330
5
100
AcDbSymbolTableRecord
100
AcDbLinetypeTableRecord
  2
CENTER
 70
     0
  3
Center ____ _ ____ _ ____ _ ____ _ ____ _ ____
 72
    65
 73
     4
 40
10.16
 49
6.35
 74
     0
 49
-1.27
 74
     0
 49
1.27
 74
     0
 49
-1.27
 74
     0
  0
LTYPE
  5
71
330
5
100
AcDbSymbolTableRecord
100
AcDbLinetypeTableRecord
  2
CENTERX2
 70
     0
  3
Center (2x) ________  __  ________  __  _____
 72
    65
 73
     4
 40
20.32
 49
12.7
 74
     0
 49
-2.54
 74
     0
 49
2.54
 74
     0
 49
-2.54
 74
     0
  0
LTYPE
  5
72
330
5
100
AcDbSymbolTableRecord
100
AcDbLinetypeTableRecord
  2
DOT2
 70
     0
  3
Dot (.5x) ........................................
 72
    65
 73
     2
 40
0.635
 49
0.0
 74
     0
 49
-0.635
 74
     0
  0
ENDTAB
  0
TABLE
  2
LAYER
  5
2
330
0
100
AcDbSymbolTable
 70
     1
  0
LAYER
  5
10
330
2
100
AcDbSymbolTableRecord
100
AcDbLayerTableRecord
  2
0
 70
     0
 62
     7
  6
Continuous
370
    -3
390
F
  0
ENDTAB
  0
TABLE
  2
STYLE
  5
3
330
0
100
AcDbSymbolTable
 70
     2
  0
STYLE
  5
11
330
3
100
AcDbSymbolTableRecord
100
AcDbTextStyleTableRecord
  2
Standard
 70
     0
 40
0.0
 41
1.0
 50
0.0
 71
     0
 42
3.5
  3
txt
  4

  0
STYLE
  5
8B
330
3
100
AcDbSymbolTableRecord
100
AcDbTextStyleTableRecord
  2
SLDTEXTSTYLE0
 70
     0
 40
0.0
 41
0.7
 50
0.0
 71
     0
 42
3.5
  3
TXT
  4

  0
ENDTAB
  0
TABLE
  2
VIEW
  5
6
330
0
100
AcDbSymbolTable
 70
     0
  0
ENDTAB
  0
TABLE
  2
UCS
  5
7
330
0
100
AcDbSymbolTable
 70
     0
  0
ENDTAB
  0
TABLE
  2
APPID
  5
9
330
0
100
AcDbSymbolTable
 70
     1
  0
APPID
  5
12
330
9
100
AcDbSymbolTableRecord
100
AcDbRegAppTableRecord
  2
ACAD
 70
     0
  0
ENDTAB
  0
TABLE
  2
DIMSTYLE
  5
A
330
0
100
AcDbSymbolTable
 70
     1
100
AcDbDimStyleTable
  0
DIMSTYLE
105
27
330
A
100
AcDbSymbolTableRecord
100
AcDbDimStyleTableRecord
  2
ISO-25
 70
     0
 41
2.5
 42
0.625
 43
3.75
 44
1.25
 73
     0
 74
     0
 77
     1
 78
     8
140
2.5
141
2.5
143
0.0393700787
147
0.625
171
     3
172
     1
178
     0
271
     2
272
     2
274
     3
278
    44
283
     0
284
     8
340
11
  0
ENDTAB
  0
TABLE
  2
BLOCK_RECORD
  5
1
330
0
100
AcDbSymbolTable
 70
     1
  0
BLOCK_RECORD
  5
1F
330
1
100
AcDbSymbolTableRecord
100
AcDbBlockTableRecord
  2
*Model_Space
340
22
  0
BLOCK_RECORD
  5
1B
330
1
100
AcDbSymbolTableRecord
100
AcDbBlockTableRecord
  2
*Paper_Space
340
1E
  0
BLOCK_RECORD
  5
23
330
1
100
AcDbSymbolTableRecord
100
AcDbBlockTableRecord
  2
*Paper_Space0
340
26
  0
ENDTAB
  0
ENDSEC
  0
SECTION
  2
BLOCKS
  0
BLOCK
  5
20
330
1F
100
AcDbEntity
  8
0
100
AcDbBlockBegin
  2
*Model_Space
 70
     0
 10
0.0
 20
0.0
 30
0.0
  3
*Model_Space
  1

  0
ENDBLK
  5
21
330
1F
100
AcDbEntity
  8
0
100
AcDbBlockEnd
  0
BLOCK
  5
1C
330
1B
100
AcDbEntity
 67
     1
  8
0
100
AcDbBlockBegin
  2
*Paper_Space
 70
     0
 10
0.0
 20
0.0
 30
0.0
  3
*Paper_Space
  1

  0
ENDBLK
  5
1D
330
1B
100
AcDbEntity
 67
     1
  8
0
100
AcDbBlockEnd
  0
BLOCK
  5
24
330
23
100
AcDbEntity
  8
0
100
AcDbBlockBegin
  2
*Paper_Space0
 70
     0
 10
0.0
 20
0.0
 30
0.0
  3
*Paper_Space0
  1

  0
ENDBLK
  5
25
330
23
100
AcDbEntity
  8
0
100
AcDbBlockEnd
  0
ENDSEC
  0
SECTION
  2
ENTITIES
  0
LWPOLYLINE
  5
73
330
1F
100
AcDbEntity
  8
0
  6
Continuous
 62
     7
100
AcDbPolyline
 90
       28
 70
   128
 43
0.0
 10
39.7896914458
 20
3.2232655243
 10
38.3079386075
 20
12.2143514459
 10
34.8218508285
 20
20.6318740697
 10
29.5141938574
 20
28.0345264285
 10
22.6632331777
 20
34.0342083403
 10
14.6281453327
 20
38.3163734062
 10
5.8301873131
 20
40.6565197906
 10
-3.2693887592
 20
40.9319602199
 10
-12.1935177785
 20
39.128254129
 10
-20.4743328333
 20
35.3399647407
 10
-27.6776941484
 20
29.7657013816
 10
-33.4259498092
 20
22.6977069559
 10
-37.4177349859
 20
14.5065364741
 10
-39.4437716415
 20
5.6216298994
 10
-39.3978403892
 20
-3.491202179
 10
-37.282349275
 20
-12.3541996803
 10
-33.2082075306
 20
-20.5027006461
 10
-27.3890109156
 20
-27.5095021557
 10
-20.1298434939
 20
-33.0072573705
 10
-11.8112829368
 20
-36.7077344925
 10
-2.8694479098
 20
-38.4169279445
 10
6.2268663996
 20
-38.0452295349
 10
15.0007658908
 20
-35.6121263629
 10
22.9922597626
 20
-31.2451791647
 10
29.7823765333
 20
-25.1733346635
 10
35.0151295342
 20
-17.7149225395
 10
38.4161802858
 20
-9.2609663017
 10
39.8072212906
 20
-0.254683029
  0
LWPOLYLINE
  5
74
330
1F
100
AcDbEntity
  8
0
  6
Continuous
 62
     7
100
AcDbPolyline
 90
       28
 70
   128
 43
0.0
 10
39.5391428739
 20
3.233459982
 10
38.0619683422
 20
12.1660384399
 10
34.5938958934
 20
20.5277417848
 10
29.3166973438
 20
27.8803086976
 10
22.5069660982
 20
33.8383696502
 10
14.5216200804
 20
38.0896452487
 10
5.7791946215
 20
40.4113137099
 10
-3.2620942004
 20
40.681689602
 10
-12.1283660047
 20
38.8866017339
 10
-20.3549135643
 20
35.120135909
 10
-27.5105594699
 20
29.579703613
 10
-33.2202553992
 20
22.5556951008
 10
-37.1847394954
 20
14.4162591944
 10
-39.1962215561
 20
5.5880075262
 10
-39.1492739258
 20
-3.466345423
 10
-37.046357267
 20
-12.2722345434
 10
-32.99769159
 20
-20.3681174409
 10
-27.2154792998
 20
-27.3296652235
 10
-20.0027830476
 20
-32.7920028186
 10
-11.7376413315
 20
-36.468833143
 10
-2.853254393
 20
-38.1674427696
 10
6.1847210735
 20
-37.7988026018
 10
14.90257835
 20
-35.3822341485
 10
22.8433890487
 20
-31.0443968276
 10
29.5909520647
 20
-25.0126493753
 10
34.791607893
 20
-17.6031333104
 10
38.1727749567
 20
-9.2042030325
 10
39.5572364045
 20
-0.2560710331
  0
LWPOLYLINE
  5
75
330
1F
100
AcDbEntity
  8
0
  6
Continuous
 62
     7
100
AcDbPolyline
 90
       29
 70
   128
 43
0.0
 10
43.6104667804
 20
3.281678457
 10
42.1083344853
 20
12.807099116
 10
38.5520487691
 20
21.7688812231
 10
33.1154126821
 20
29.7290439212
 10
26.0641258924
 20
36.2985575689
 10
17.7427993932
 20
41.1563564245
 10
8.558113649
 20
44.0650297946
 10
-1.0410567206
 20
44.8824247858
 10
-10.5855803737
 20
43.5685936115
 10
-19.6089966668
 20
40.1877459231
 10
-27.6703125525
 20
34.9051107509
 10
-34.3755548234
 20
27.9788614194
 10
-39.3970243991
 20
19.747498082
 10
-42.4893116587
 20
10.6133045173
 10
-43.5012901179
 20
1.0226876874
 10
-42.3835022928
 20
-8.555639095
 10
-39.1905767902
 20
-17.6535631574
 10
-34.078558494
 20
-25.8264501035
 10
-27.2972823283
 20
-32.6748740169
 10
-19.1781633077
 20
-37.8641382337
 10
-10.1179995985
 20
-41.1406326615
 10
-0.5595801704
 20
-42.3442282298
 10
9.0299552177
 20
-41.4161027298
 10
18.1819461055
 20
-38.4016155775
 10
26.4491157388
 20
-33.4480910049
 10
33.4274304111
 20
-26.7976180196
 10
38.775845428
 20
-18.7752190138
 10
42.2329726678
 20
-9.7729652462
 10
43.6298551602
 20
-0.2308155078
  0
LWPOLYLINE
  5
76
330
1F
100
AcDbEntity
  8
0
  6
Continuous
 62
     7
100
AcDbPolyline
 90
      141
 70
   128
 43
0.0
 10
999.0440890818
 20
6.8207779717
 10
997.8003288232
 20
51.6787030353
 10
994.5472867647
 20
96.4351200602
 10
989.2915141001
 20
140.9998955789
 10
982.0435952561
 20
185.2832820643
 10
972.8181265767
 20
229.1960986693
 10
961.6336869281
 20
272.6499108254
 10
948.5128002832
 20
315.5572083378
 10
933.4818903616
 20
357.8315816195
 10
916.5712274155
 20
399.3878957088
 10
897.8148672695
 20
440.1424617194
 10
877.250582737
 20
480.0132053792
 10
854.9197875501
 20
518.9198323165
 10
830.8674529585
 20
556.7839897625
 10
805.1420171632
 20
593.5294243432
 10
777.7952877682
 20
629.0821356434
 10
748.8823374472
 20
663.3705252341
 10
718.4613930342
 20
696.3255408618
 10
686.5937182629
 20
727.8808155107
 10
653.3434903892
 20
757.9728010573
 10
618.777670947
 20
786.5408962473
 10
582.9658708966
 20
813.5275687389
 10
545.9802104373
 20
838.8784709653
 10
507.8951737671
 20
862.542549583
 10
468.7874590815
 20
884.472148287
 10
428.7358241132
 20
904.623103784
 10
387.820927525
 20
922.9548347313
 10
346.1251664734
 20
939.4304234625
 10
303.7325106723
 20
954.0166903344
 10
260.7283332886
 20
966.6842605468
 10
217.1992390127
 20
977.4076232991
 10
173.2328896472
 20
986.1651831658
 10
128.9178275688
 20
992.9393035868
 10
84.3432974149
 20
997.7163423851
 10
39.5990663571
 20
1000.4866792403
 10
-5.2247566779
 20
1001.2447350626
 10
-50.0379024758
 20
999.9889832286
 10
-94.7501233248
 20
996.7219526552
 10
-139.2713747626
 20
991.4502227073
 10
-183.5119969137
 20
984.1844099474
 10
-227.3828950528
 20
974.9391467555
 10
-270.7957190294
 20
963.7330518612
 10
-313.6630411937
 20
950.5886928484
 10
-355.8985324637
 20
935.5325407067
 10
-397.4171361807
 20
918.5949165229
 10
-438.1352394022
 20
899.809930418
 10
-477.9708412873
 20
879.2154128541
 10
-516.8437182352
 20
856.8528384487
 10
-554.6755854451
 20
832.7672424507
 10
-591.390254571
 20
807.007130045
 10
-626.9137871555
 20
779.6243786697
 10
-661.1746435315
 20
750.674133542
 10
-694.1038268939
 20
720.2146966028
 10
-725.6350222495
 20
688.3074091044
 10
-755.7047299673
 20
655.0165280776
 10
-784.2523936576
 20
620.4090969264
 10
-811.220522125
 20
584.5548104113
 10
-836.5548051477
 20
547.5258742939
 10
-860.2042228512
 20
509.3968599236
 10
-882.1211484557
 20
470.244554061
 10
-902.2614441898
 20
430.1478042397
 10
-920.584550178
 20
389.1873599775
 10
-937.0535661236
 20
347.4457101583
 10
-951.63532562
 20
305.0069169094
 10
-964.3004629443
 20
261.9564463128
 10
-975.0234721954
 20
218.3809962869
 10
-983.7827586597
 20
174.368321989
 10
-990.5606822999
 20
130.0070590877
 10
-995.34359328
 20
85.3865452628
 10
-998.1218594536
 20
40.596640291
 10
-998.8898857625
 20
-4.2724549199
 10
-997.6461255039
 20
-49.1303799834
 10
-994.3930834454
 20
-93.8867970084
 10
-989.1373107808
 20
-138.4515725271
 10
-981.8893919369
 20
-182.7349590124
 10
-972.6639232575
 20
-226.6477756175
 10
-961.4794836088
 20
-270.1015877736
 10
-948.3585969639
 20
-313.008885286
 10
-933.3276870423
 20
-355.2832585677
 10
-916.4170240962
 20
-396.8395726569
 10
-897.6606639503
 20
-437.5941386676
 10
-877.0963794177
 20
-477.4648823274
 10
-854.7655842308
 20
-516.3715092647
 10
-830.7132496392
 20
-554.2356667107
 10
-804.9878138439
 20
-590.9811012913
 10
-777.6410844489
 20
-626.5338125915
 10
-748.7281341279
 20
-660.8222021822
 10
-718.3071897149
 20
-693.7772178099
 10
-686.4395149437
 20
-725.3324924589
 10
-653.18928707
 20
-755.4244780055
 10
-618.6234676278
 20
-783.9925731955
 10
-582.8116675773
 20
-810.9792456871
 10
-545.826007118
 20
-836.3301479134
 10
-507.7409704479
 20
-859.9942265311
 10
-468.6332557622
 20
-881.9238252351
 10
-428.581620794
 20
-902.0747807321
 10
-387.6667242057
 20
-920.4065116794
 10
-345.9709631541
 20
-936.8821004106
 10
-303.578307353
 20
-951.4683672826
 10
-260.5741299694
 20
-964.135937495
 10
-217.0450356934
 20
-974.8593002473
 10
-173.078686328
 20
-983.616860114
 10
-128.7636242496
 20
-990.3909805349
 10
-84.1890940956
 20
-995.1680193332
 10
-39.4448630378
 20
-997.9383561884
 10
5.3789599972
 20
-998.6964120107
 10
50.1921057951
 20
-997.4406601767
 10
94.9043266441
 20
-994.1736296033
 10
139.4255780818
 20
-988.9018996554
 10
183.6662002329
 20
-981.6360868955
 10
227.537098372
 20
-972.3908237036
 10
270.9499223487
 20
-961.1847288093
 10
313.817244513
 20
-948.0403697965
 10
356.052735783
 20
-932.9842176548
 10
397.5713395
 20
-916.0465934711
 10
438.2894427215
 20
-897.2616073662
 10
478.1250446066
 20
-876.6670898023
 10
516.9979215545
 20
-854.3045153969
 10
554.8297887643
 20
-830.2189193989
 10
591.5444578903
 20
-804.4588069931
 10
627.0679904748
 20
-777.0760556179
 10
661.3288468508
 20
-748.1258104902
 10
694.2580302131
 20
-717.6663735509
 10
725.7892255688
 20
-685.7590860526
 10
755.8589332866
 20
-652.4682050258
 10
784.4065969769
 20
-617.8607738745
 10
811.3747254443
 20
-582.0064873594
 10
836.709008467
 20
-544.977551242
 10
860.3584261705
 20
-506.8485368717
 10
882.275351775
 20
-467.6962310091
 10
902.415647509
 20
-427.5994811878
 10
920.7387534973
 20
-386.6390369257
 10
937.2077694429
 20
-344.8973871064
 10
951.7895289393
 20
-302.4585938576
 10
964.4546662636
 20
-259.408123261
 10
975.1776755147
 20
-215.8326732351
 10
983.936961979
 20
-171.8199989371
 10
990.7148856192
 20
-127.4587360358
 10
995.4977965993
 20
-82.838222211
 10
998.2760627729
 20
-38.0483172392
 10
999.0440890818
 20
6.8207779717
  0
LWPOLYLINE
  5
77
330
1F
100
AcDbEntity
  8
0
  6
Continuous
 62
     7
100
AcDbPolyline
 90
      144
 70
   128
 43
0.0
 10
1048.9924384529
 20
7.098108794
 10
1047.7355701744
 20
53.2115642692
 10
1044.4564394426
 20
99.2247665965
 10
1039.1613758612
 20
145.0488979269
 10
1031.8606003263
 20
190.5955053697
 10
1022.5682052971
 20
235.7766717295
 10
1011.3021275936
 20
280.5051852107
 10
998.0841137744
 20
324.6947077593
 10
982.9396781589
 20
368.2599417187
 10
965.8980535787
 20
411.1167944771
 10
946.99213495
 20
453.1825407888
 10
926.2584157778
 20
494.3759824562
 10
903.736917713
 20
534.6176050641
 10
879.4711133009
 20
573.8297314641
 10
853.5078420664
 20
611.936671712
 10
825.8972201021
 20
648.86486917
 10
796.6925433298
 20
684.5430424908
 10
765.9501846261
 20
718.9023232097
 10
733.7294850067
 20
751.8763886791
 10
700.0926390827
 20
783.4015900894
 10
665.1045750083
 20
813.4170753278
 10
628.832829152
 20
841.8649064397
 10
591.347415733
 20
868.6901714643
 10
552.7206916752
 20
893.8410904297
 10
513.0272169388
 20
917.2691153015
 10
472.3436105998
 20
938.9290236944
 10
430.7484029539
 20
958.7790061631
 10
388.3218839327
 20
976.7807469057
 10
345.1459481221
 20
992.8994977238
 10
301.3039366839
 20
1007.1041450956
 10
256.8804764847
 20
1019.3672702334
 10
211.9613167437
 20
1029.6652020095
 10
166.6331635134
 20
1037.9780626475
 10
120.9835123137
 20
1044.2898060917
 10
75.100479242
 20
1048.5882489809
 10
29.0726308853
 20
1050.8650941648
 10
-17.0111866366
 20
1051.1159467201
 10
-63.0620191689
 20
1049.3403224341
 10
-108.9909762263
 20
1045.5416487389
 10
-154.709402576
 20
1039.7272580958
 10
-200.1290493661
 20
1031.9083738416
 10
-245.1622444697
 20
1022.1000885246
 10
-289.7220617152
 20
1010.321334772
 10
-333.7224886778
 20
996.5948487447
 10
-377.0785927062
 20
980.9471262502
 10
-419.7066848656
 20
963.4083715992
 10
-461.5244814798
 20
944.0124393024
 10
-502.4512629606
 20
922.7967687229
 10
-542.4080296188
 20
899.8023118075
 10
-581.3176541544
 20
875.073454039
 10
-619.1050305333
 20
848.65792876
 10
-655.6972189618
 20
820.6067250347
 10
-691.0235866802
 20
790.9739892265
 10
-725.0159443034
 20
759.8169204806
 10
-757.6086774438
 20
727.1956603147
 10
-788.7388733658
 20
693.1731765295
 10
-818.3464424233
 20
657.8151416639
 10
-846.3742340497
 20
621.1898062294
 10
-872.7681470733
 20
583.3678669682
 10
-897.4772341474
 20
544.4223303895
 10
-920.453800092
 20
504.4283718475
 10
-941.6534939588
 20
463.4631904324
 10
-961.0353946403
 20
421.6058599558
 10
-978.5620898583
 20
378.9371763167
 10
-994.1997483799
 20
335.5395015438
 10
-1007.9181853207
 20
291.4966048146
 10
-1019.69092041
 20
246.8935007585
 10
-1029.4952291045
 20
201.8162853555
 10
-1037.3121864531
 20
156.3519697481
 10
-1043.1267036269
 20
110.5883122862
 10
-1046.9275570449
 20
64.6136491298
 10
-1048.7074100382
 20
18.5167237368
 10
-1048.4628270121
 20
-27.6134844361
 10
-1046.1942800778
 20
-73.6879316873
 10
-1041.9061481404
 20
-119.6176819489
 10
-1035.6067084474
 20
-165.314078457
 10
-1027.3081206105
 20
-210.6889148833
 10
-1017.026403135
 20
-255.6546055968
 10
-1004.7814024993
 20
-300.1243547276
 10
-990.5967548461
 20
-344.0123237066
 10
-974.4998403581
 20
-387.2337969566
 10
-956.5217304071
 20
-429.7053454163
 10
-936.6971275779
 20
-471.344987581
 10
-915.0642986827
 20
-512.0723477486
 10
-891.6650008962
 20
-551.8088111664
 10
-866.5444011527
 20
-590.4776757791
 10
-839.7509889623
 20
-628.0043002837
 10
-811.3364828123
 20
-664.3162482079
 10
-781.3557303375
 20
-699.3434277316
 10
-749.866602449
 20
-733.018226983
 10
-716.9298816277
 20
-765.2756445479
 10
-682.6091445983
 20
-796.0534149395
 10
-646.9706396085
 20
-825.2921287881
 10
-610.0831585526
 20
-852.9353475166
 10
-572.0179041843
 20
-878.9297122823
 10
-532.8483526764
 20
-903.2250469741
 10
-492.650111792
 20
-925.7744550654
 10
-451.5007749413
 20
-946.5344101373
 10
-409.4797714053
 20
-965.4648398964
 10
-366.668213016
 20
-982.5292035247
 10
-323.1487375888
 20
-997.6945622135
 10
-279.0053494092
 20
-1010.9316427442
 10
-234.323257082
 20
-1022.2148939931
 10
-189.188709056
 20
-1031.5225362526
 10
-143.688827141
 20
-1038.8366032711
 10
-97.9114383392
 20
-1044.1429769332
 10
-51.9449053162
 20
-1047.4314145115
 10
-5.8779558362
 20
-1048.6955684376
 10
40.2004885055
 20
-1047.9329985544
 10
86.2014839254
 20
-1045.145176827
 10
132.0362361375
 20
-1040.3374845005
 10
177.6162717496
 20
-1033.5192017135
 10
222.8536090412
 20
-1024.7034895845
 10
267.6609277915
 20
-1013.9073648076
 10
311.9517378312
 20
-1001.1516668055
 10
355.6405459917
 20
-986.4610175041
 10
398.6430211296
 20
-969.8637738054
 10
440.8761569091
 20
-951.391972851
 10
482.2584320258
 20
-931.0812701821
 10
522.7099675652
 20
-908.9708709141
 10
562.1526811905
 20
-885.103454061
 10
600.5104378621
 20
-859.5250901528
 10
637.7091967993
 20
-832.2851523073
 10
673.6771543983
 20
-803.4362209265
 10
708.3448828328
 20
-773.0339822026
 10
741.6454640683
 20
-741.1371206284
 10
773.5146190318
 20
-707.8072057206
 10
803.890831688
 20
-673.108573174
 10
832.7154677812
 20
-637.1082006763
 10
859.9328880158
 20
-599.8755786233
 10
885.4905554547
 20
-561.4825759836
 10
909.33913693
 20
-522.0033015723
 10
931.4325982689
 20
-481.513961001
 10
951.7282931523
 20
-440.0927095806
 10
970.1870454337
 20
-397.81950146
 10
986.7732247595
 20
-354.7759352942
 10
1001.4548153451
 20
-311.0450967357
 10
1014.2034777746
 20
-266.7113980578
 10
1024.9946037024
 20
-221.8604152158
 10
1033.8073633549
 20
-176.5787226624
 10
1040.6247457371
 20
-130.953726236
 10
1045.4335914686
 20
-85.0734944435
 10
1048.2246181845
 20
-39.0265884649
 10
1048.9924384529
 20
7.098108794
  0
LWPOLYLINE
  5
78
330
1F
100
AcDbEntity
  8
0
  6
Continuous
 62
     7
100
AcDbPolyline
 90
       30
 70
   128
 43
0.0
 10
43.8612317096
 20
3.2649939482
 10
42.4431454697
 20
12.5242451269
 10
39.0935467558
 20
21.2705931677
 10
33.9651472945
 20
29.105282869
 10
27.2917562084
 20
35.6711224912
 10
19.3776204123
 20
40.6687685037
 10
10.583553677
 20
43.870372971
 10
1.3104867493
 20
45.1299713799
 10
-8.0188115011
 20
44.3901373147
 10
-16.9790085598
 20
41.6846005882
 10
-25.1615996236
 20
37.136709464
 10
-32.1935317641
 20
30.9538070793
 10
-37.7542118027
 20
23.4177784534
 10
-41.590122491
 20
14.8721990537
 10
-43.5263806281
 20
5.7066708284
 10
-43.4747101702
 20
-3.6609401557
 10
-41.4374668277
 20
-12.8035546661
 10
-37.5075306663
 20
-21.3043512964
 10
-31.8640716068
 20
-28.7757697917
 10
-24.7643808804
 20
-34.8771803287
 10
-16.5321408507
 20
-39.3304131869
 10
-7.5426679947
 20
-41.932440799
 10
1.7941981699
 20
-42.5646339908
 10
11.0527800996
 20
-41.19817041
 10
19.8109693112
 20
-37.8953485678
 10
27.6694707516
 20
-32.806747584
 10
34.2700070791
 20
-26.1643621269
 10
39.3116529036
 20
-18.271025532
 10
42.5645542921
 20
-9.4866033126
 10
43.8804080508
 20
-0.2115865121
  0
LWPOLYLINE
  5
79
330
1F
100
AcDbEntity
  8
0
  6
Continuous
 62
     7
100
AcDbPolyline
 90
       29
 70
   128
 43
0.0
 10
41.8747141525
 20
3.2389595715
 10
40.425208742
 20
12.3802951207
 10
37.0052894618
 20
20.9792587656
 10
31.7819692617
 20
28.6159171201
 10
25.0103308038
 20
34.9173313121
 10
17.0210694121
 20
39.5757695838
 10
8.2043434505
 20
42.3637354788
 10
-1.009279196
 20
43.145077711
 10
-10.1698480549
 20
41.8816391604
 10
-18.8300035536
 20
38.6351202887
 10
-26.5668239806
 20
33.5640659764
 10
-33.0024790141
 20
26.916122928
 10
-37.822681198
 20
19.0159457589
 10
-40.7920342789
 20
10.2493423742
 10
-41.7655288643
 20
1.0444329052
 10
-40.6956240069
 20
-8.1492576866
 10
-37.6345688832
 20
-16.8827523173
 10
-32.731851187
 20
-24.7295477333
 10
-26.2268968453
 20
-31.3064429458
 10
-18.4373775703
 20
-36.2922529855
 10
-9.7436972503
 20
-39.4434940814
 10
-0.5704147932
 20
-40.6062742767
 10
8.6344893555
 20
-39.7238087952
 10
17.421490494
 20
-36.8391931462
 10
25.3614723598
 20
-32.0932985402
 10
32.0666831713
 20
-25.7178923941
 10
37.2096716221
 20
-18.0243198888
 10
40.539278079
 20
-9.3882993184
 10
41.8929000504
 20
-0.2315737572
  0
LWPOLYLINE
  5
7A
330
1F
100
AcDbEntity
  8
0
  6
Continuous
 62
     7
100
AcDbPolyline
 90
       29
 70
   128
 43
0.0
 10
41.6242865127
 20
3.247576087
 10
40.179348911
 20
12.3323459014
 10
36.7765732977
 20
20.8772423872
 10
31.5820871069
 20
28.4650938322
 10
24.8494911519
 20
34.7254525682
 10
16.9074785405
 20
39.3526806537
 10
8.143787498
 20
42.1208714712
 10
-1.0137284608
 20
42.8948787488
 10
-10.1179888336
 20
41.6369145576
 10
-18.7245131176
 20
38.4083941618
 10
-26.4131208604
 20
33.3669376548
 10
-32.808445355
 20
26.7586747638
 10
-37.5982594757
 20
18.9062285129
 10
-40.5487189671
 20
10.1929643943
 10
-41.5157789901
 20
1.0442740223
 10
-40.452226558
 20
-8.0931929764
 10
-37.4099855284
 20
-16.773334913
 10
-32.5375816209
 20
-24.5723772364
 10
-26.0728912197
 20
-31.1095616958
 10
-18.3315279742
 20
-36.0657353983
 10
-9.691434176
 20
-39.1989322215
 10
-0.5744291798
 20
-40.356185879
 10
8.5743843042
 20
-39.480997911
 10
17.3083506388
 20
-36.6160960048
 10
25.2010675036
 20
-31.901347979
 10
31.8672033485
 20
-25.5669332757
 10
36.9813097252
 20
-17.9221053344
 10
40.2937100556
 20
-9.3400934815
 10
41.6426891313
 20
-0.2398814443
  0
LWPOLYLINE
  5
7B
330
1F
100
AcDbEntity
  8
0
  6
Continuous
 62
     7
100
AcDbPolyline
 90
       17
 70
   128
 43
0.0
 10
3.7473063714
 20
1.2945397948
 10
3.4604743718
 20
2.698926149
 10
2.6585545472
 20
3.8864050048
 10
1.4636319213
 20
4.676193471
 10
0.0576226321
 20
4.9480534131
 10
-1.3454211518
 20
4.6605966192
 10
-2.5318987329
 20
3.8575857806
 10
-3.3211796548
 20
2.6612720179
 10
-3.5931030521
 20
1.2537832571
 10
-3.3062710526
 20
-0.1506030971
 10
-2.5043512279
 20
-1.3380819529
 10
-1.309428602
 20
-2.1278704192
 10
0.0965806872
 20
-2.3997303612
 10
1.4996244711
 20
-2.1122735674
 10
2.6861020522
 20
-1.3092627287
 10
3.4753829741
 20
-0.1129489661
 10
3.7473063714
 20
1.2945397948
  0
LWPOLYLINE
  5
7C
330
1F
100
AcDbEntity
  8
0
  6
Continuous
 62
     7
100
AcDbPolyline
 90
       17
 70
   128
 43
0.0
 10
-973.5884920257
 20
-4.1319726733
 10
-973.8753240252
 20
-2.7275863191
 10
-974.6772438499
 20
-1.5401074632
 10
-975.8721664757
 20
-0.750318997
 10
-977.278175765
 20
-0.4784590549
 10
-978.6812195489
 20
-0.7659158487
 10
-979.86769713
 20
-1.5689266874
 10
-980.6569780519
 20
-2.76524045
 10
-980.9289014492
 20
-4.1727292109
 10
-980.6420694497
 20
-5.5771155651
 10
-979.840149625
 20
-6.7645944209
 10
-978.6452269992
 20
-7.5543828872
 10
-977.2392177099
 20
-7.8262428292
 10
-975.836173926
 20
-7.5387860354
 10
-974.6496963449
 20
-6.7357751968
 10
-973.860415423
 20
-5.5394614341
 10
-973.5884920257
 20
-4.1319726733
  0
LWPOLYLINE
  5
7D
330
1F
100
AcDbEntity
  8
0
  6
Continuous
 62
     7
100
AcDbPolyline
 90
       29
 70
   128
 43
0.0
 10
38.9066963138
 20
13.3927456522
 10
35.2412972461
 20
21.7373512901
 10
29.8126185789
 20
29.0558471464
 10
22.8928769286
 20
34.9812532795
 10
14.8290570359
 20
39.2164450835
 10
6.0255125018
 20
41.5490523568
 10
-3.0763101902
 20
41.8621084305
 10
-12.0200076447
 20
40.1399153659
 10
-20.3571055254
 20
36.4688311145
 10
-27.6695469321
 20
31.0329391698
 10
-33.5906555185
 20
24.1048178522
 10
-37.8235221757
 20
16.0318720939
 10
-40.1558932945
 20
7.2189131048
 10
-40.470814048
 20
-1.8921405515
 10
-38.7524929945
 20
-10.8444226003
 10
-35.0870939269
 20
-19.1890282382
 10
-29.6584152596
 20
-26.5075240946
 10
-22.7386736093
 20
-32.4329302277
 10
-14.6748537166
 20
-36.6681220317
 10
-5.8713091826
 20
-39.0007293049
 10
3.2305135095
 20
-39.3137853786
 10
12.1742109639
 20
-37.591592314
 10
20.5113088447
 20
-33.9205080627
 10
27.8237502514
 20
-28.4846161179
 10
33.7448588378
 20
-21.5564948003
 10
37.9777254949
 20
-13.483549042
 10
40.3100966138
 20
-4.670590053
 10
40.6250173673
 20
4.4404636033
 10
38.9066963138
 20
13.3927456522
  0
LWPOLYLINE
  5
7E
330
1F
100
AcDbEntity
  8
0
  6
Continuous
 62
     7
100
AcDbPolyline
 90
       29
 70
   128
 43
0.0
 10
39.3835796977
 20
13.5415793306
 10
35.6731642469
 20
21.9886687521
 10
30.1778135817
 20
29.397046285
 10
23.1730875311
 20
35.3952249452
 10
15.0102323085
 20
39.6824310084
 10
6.0985675599
 20
42.0436860607
 10
-3.1150386325
 20
42.3605869142
 10
-12.1685775814
 20
40.6172428367
 10
-20.6080670396
 20
36.9010723799
 10
-28.0103157655
 20
31.3984198479
 10
-34.0041440989
 20
24.3852112156
 10
-38.2889964591
 20
16.2131180486
 10
-40.6500124567
 20
7.2919232219
 10
-40.9688008909
 20
-1.9310273043
 10
-39.2293763784
 20
-10.9932562788
 10
-35.5189609276
 20
-19.4403457003
 10
-30.0236102624
 20
-26.8487232332
 10
-23.0188842119
 20
-32.8469018933
 10
-14.8560289893
 20
-37.1341079565
 10
-5.9443642406
 20
-39.4953630089
 10
3.2692419518
 20
-39.8122638623
 10
12.3227809006
 20
-38.0689197848
 10
20.7622703589
 20
-34.352749328
 10
28.1645190848
 20
-28.850096796
 10
34.1583474182
 20
-21.8368881638
 10
38.4431997783
 20
-13.6647949967
 10
40.8042157759
 20
-4.74360017
 10
41.1230042101
 20
4.4793503561
 10
39.3835796977
 20
13.5415793306
  0
LWPOLYLINE
  5
7F
330
1F
100
AcDbEntity
  8
0
  6
Continuous
 62
     7
100
AcDbPolyline
 90
       29
 70
   128
 43
0.0
 10
40.6409325758
 20
13.9339948777
 10
36.8118267264
 20
22.6512935046
 10
31.1406883712
 20
30.2966534709
 10
23.9118920681
 20
36.4867045037
 10
15.4879198485
 20
40.9110515968
 10
6.291184855
 20
43.3478395125
 10
-3.2171502177
 20
43.6748775296
 10
-12.5602977457
 20
41.8757665963
 10
-21.2697532984
 20
38.0407216473
 10
-28.9087884067
 20
32.36204785
 10
-35.0943499525
 20
25.1244976206
 10
-39.5162680514
 20
16.6909919492
 10
-41.9528092654
 20
7.4844220253
 10
-42.281795244
 20
-2.0335562919
 10
-40.4867292565
 20
-11.3856718259
 10
-36.6576234071
 20
-20.1029704527
 10
-30.9864850519
 20
-27.748330419
 10
-23.7576887489
 20
-33.9383814518
 10
-15.3337165293
 20
-38.3627285449
 10
-6.1369815357
 20
-40.7995164607
 10
3.371353537
 20
-41.1265544778
 10
12.714501065
 20
-39.3274435445
 10
21.4239566176
 20
-35.4923985954
 10
29.062991726
 20
-29.8137247981
 10
35.2485532718
 20
-22.5761745688
 10
39.6704713707
 20
-14.1426688973
 10
42.1070125847
 20
-4.9360989734
 10
42.4359985633
 20
4.5818793438
 10
40.6409325758
 20
13.9339948777
  0
LWPOLYLINE
  5
80
330
1F
100
AcDbEntity
  8
0
  6
Continuous
 62
     7
100
AcDbPolyline
 90
       30
 70
   128
 43
0.0
 10
41.1178159597
 20
14.0828285562
 10
37.4097014081
 20
22.6141252507
 10
31.9559559845
 20
30.1475889591
 10
25.0115907634
 20
36.3309632913
 10
16.9013165446
 20
40.8751205357
 10
8.0043607365
 20
43.5675809502
 10
-1.2632648955
 20
44.2824480781
 10
-10.4682164771
 20
42.9862955271
 10
-19.1800807029
 20
39.73972995
 10
-26.9915004843
 20
34.6945571447
 10
-33.537222514
 20
28.0866837844
 10
-38.511176105
 20
20.2250866833
 10
-41.6807847154
 20
11.4773653842
 10
-42.8978409696
 20
2.2525536128
 10
-42.1054366696
 20
-7.0180066851
 10
-39.3406237599
 20
-15.9008344137
 10
-34.7326818192
 20
-23.9805784207
 10
-28.4970730913
 20
-30.8794388564
 10
-20.92536771
 20
-36.2748326745
 10
-12.3716102036
 20
-39.9144772564
 10
-3.2357647661
 20
-41.6281868667
 10
6.0549866234
 20
-41.3358303488
 10
15.0662187559
 20
-39.0510779684
 10
23.3765764323
 20
-34.8807622075
 10
30.5974765638
 20
-29.0198823961
 10
36.3912778857
 20
-21.7424867604
 10
40.4870686876
 20
-13.388858232
 10
42.6933343437
 20
-4.3496031964
 10
42.9069123241
 20
4.9526128271
 10
41.1178159597
 20
14.0828285562
  0
LINE
  5
81
330
1F
100
AcDbEntity
  8
0
  6
Continuous
 62
     7
100
AcDbLine
 10
39.8072212906
 20
-0.254683029
 30
0.0
 11
39.5572364045
 21
-0.2560710331
 31
0.0
  0
LINE
  5
82
330
1F
100
AcDbEntity
  8
0
  6
Continuous
 62
     7
100
AcDbLine
 10
39.5391428739
 20
3.233459982
 30
0.0
 11
39.7896914458
 21
3.2232655243
 31
0.0
  0
LINE
  5
83
330
1F
100
AcDbEntity
  8
0
  6
Continuous
 62
     7
100
AcDbLine
 10
41.6242865127
 20
3.247576087
 30
0.0
 11
41.8747141525
 21
3.2389595715
 31
0.0
  0
LINE
  5
84
330
1F
100
AcDbEntity
  8
0
  6
Continuous
 62
     7
100
AcDbLine
 10
43.6298551602
 20
-0.2308155078
 30
0.0
 11
43.6284351219
 21
0.0370144483
 31
0.0
  0
LINE
  5
85
330
1F
100
AcDbEntity
  8
0
  6
Continuous
 62
     7
100
AcDbLine
 10
41.8929000504
 20
-0.2315737572
 30
0.0
 11
41.6426891313
 21
-0.2398814443
 31
0.0
  0
LINE
  5
86
330
1F
100
AcDbEntity
  8
0
  6
Continuous
 62
     7
100
AcDbLine
 10
43.6284351219
 20
0.0370144483
 30
0.0
 11
46.0855842355
 21
0.0506574054
 31
0.0
  0
LINE
  5
87
330
1F
100
AcDbEntity
  8
0
  6
Continuous
 62
     7
100
AcDbLine
 10
46.0855842355
 20
0.0506574054
 30
0.0
 11
46.0869097001
 21
-0.199335238
 31
0.0
  0
LINE
  5
88
330
1F
100
AcDbEntity
  8
0
  6
Continuous
 62
     7
100
AcDbLine
 10
46.0869097001
 20
-0.199335238
 30
0.0
 11
43.8804080508
 21
-0.2115865121
 31
0.0
  0
LINE
  5
89
330
1F
100
AcDbEntity
  8
0
  6
Continuous
 62
     7
100
AcDbLine
 10
43.6104667804
 20
3.281678457
 30
0.0
 11
43.8612317096
 21
3.2649939482
 31
0.0
  0
POINT
  5
8A
330
1F
100
AcDbEntity
  8
0
  6
Continuous
 62
     7
100
AcDbPoint
 10
0.0771016596
 20
1.274161526
 30
0.0
  0
MTEXT
  5
8C
330
1F
100
AcDbEntity
  8
0
  6
Continuous
 62
     7
100
AcDbMText
 10
-1048.7074100382
 20
-1049.7151348293
 30
0.0
 40
4.83362
 41
0.0
 71
     1
 72
     1
  1
Produto educacional do SOLIDWORKS.
  7
SLDTEXTSTYLE0
 73
     1
 44
1.0
  0
MTEXT
  5
8D
330
1F
100
AcDbEntity
  8
0
  6
Continuous
 62
     7
100
AcDbMText
 10
-1048.7074100382
 20
-1056.9655648293
 30
0.0
 40
4.83362
 41
0.0
 71
     1
 72
     1
  1
Somente para fins de instrução.
  7
SLDTEXTSTYLE0
 73
     1
 44
1.0
  0
ENDSEC
  0
SECTION
  2
OBJECTS
  0
DICTIONARY
  5
C
330
0
100
AcDbDictionary
281
     1
  3
ACAD_GROUP
350
D
  3
ACAD_LAYOUT
350
1A
  3
ACAD_MLINESTYLE
350
17
  3
ACAD_PLOTSETTINGS
350
19
  3
ACAD_PLOTSTYLENAME
350
E
  3
ACAD_SCALELIST
350
47
  0
DICTIONARY
  5
D
102
{ACAD_REACTORS
330
C
102
}
330
C
100
AcDbDictionary
281
     1
  0
DICTIONARY
  5
1A
102
{ACAD_REACTORS
330
C
102
}
330
C
100
AcDbDictionary
281
     1
  3
Layout1
350
1E
  3
Layout2
350
26
  3
Model
350
22
  0
DICTIONARY
  5
17
102
{ACAD_REACTORS
330
C
102
}
330
C
100
AcDbDictionary
281
     1
  3
Standard
350
18
  0
DICTIONARY
  5
19
102
{ACAD_REACTORS
330
C
102
}
330
C
100
AcDbDictionary
281
     1
  0
ACDBDICTIONARYWDFLT
  5
E
102
{ACAD_REACTORS
330
C
102
}
330
C
100
AcDbDictionary
281
     1
  3
Normal
350
F
100
AcDbDictionaryWithDefault
340
F
  0
DICTIONARY
  5
47
102
{ACAD_REACTORS
330
C
102
}
330
C
100
AcDbDictionary
281
     1
  3
A0
350
48
  3
A1
350
49
  3
A2
350
4A
  3
A3
350
4B
  3
A4
350
4C
  3
A5
350
4D
  3
A6
350
4E
  3
A7
350
4F
  3
A8
350
50
  3
A9
350
51
  3
B0
350
52
  3
B1
350
53
  3
B2
350
54
  3
B3
350
55
  3
B4
350
56
  3
B5
350
57
  3
B6
350
58
  3
B7
350
59
  3
B8
350
5A
  3
B9
350
5B
  3
C0
350
5C
  3
C1
350
5D
  3
C2
350
5E
  3
C3
350
5F
  3
C4
350
60
  3
C5
350
61
  3
C6
350
62
  3
C7
350
63
  3
C8
350
64
  3
C9
350
65
  3
D0
350
66
  3
D1
350
67
  3
D2
350
68
  0
LAYOUT
  5
1E
102
{ACAD_REACTORS
330
1A
102
}
330
1A
100
AcDbPlotSettings
  1

  2
none_device
  4

  6

 40
0.0
 41
0.0
 42
0.0
 43
0.0
 44
0.0
 45
0.0
 46
0.0
 47
0.0
 48
0.0
 49
0.0
140
0.0
141
0.0
142
1.0
143
1.0
 70
   688
 72
     1
 73
     0
 74
     5
  7

 75
    16
147
1.0
148
0.0
149
0.0
100
AcDbLayout
  1
Layout1
 70
     1
 71
     1
 10
0.0
 20
0.0
 11
420.0
 21
297.0
 12
0.0
 22
0.0
 32
0.0
 14
1.0000000000E+20
 24
1.0000000000E+20
 34
1.0000000000E+20
 15
-1.0000000000E+20
 25
-1.0000000000E+20
 35
-1.0000000000E+20
146
0.0
 13
0.0
 23
0.0
 33
0.0
 16
1.0
 26
0.0
 36
0.0
 17
0.0
 27
1.0
 37
0.0
 76
     0
330
1B
  0
LAYOUT
  5
26
102
{ACAD_REACTORS
330
1A
102
}
330
1A
100
AcDbPlotSettings
  1

  2
none_device
  4

  6

 40
0.0
 41
0.0
 42
0.0
 43
0.0
 44
0.0
 45
0.0
 46
0.0
 47
0.0
 48
0.0
 49
0.0
140
0.0
141
0.0
142
1.0
143
1.0
 70
   688
 72
     1
 73
     0
 74
     5
  7

 75
    16
147
1.0
148
0.0
149
0.0
100
AcDbLayout
  1
Layout2
 70
     1
 71
     2
 10
0.0
 20
0.0
 11
0.0
 21
0.0
 12
0.0
 22
0.0
 32
0.0
 14
0.0
 24
0.0
 34
0.0
 15
0.0
 25
0.0
 35
0.0
146
0.0
 13
0.0
 23
0.0
 33
0.0
 16
1.0
 26
0.0
 36
0.0
 17
0.0
 27
1.0
 37
0.0
 76
     0
330
23
  0
LAYOUT
  5
22
102
{ACAD_REACTORS
330
1A
102
}
330
1A
100
AcDbPlotSettings
  1

  2
none_device
  4
ANSI_A_(11.00_x_8.50_Inches)
  6

 40
6.35
 41
19.05
 42
6.35000508
 43
19.05000254
 44
279.4
 45
215.9
 46
133.3354908583
 47
88.7768128939
 48
0.0
 49
0.0
140
0.0
141
0.0
142
0.0040075025
143
1.0
 70
  1696
 72
     0
 73
     0
 74
     0
  7

 75
     0
147
0.0179189148
148
-1300.4909072572
149
0.0
100
AcDbLayout
  1
Model
 70
     1
 71
     0
 10
0.0
 20
0.0
 11
420.0
 21
297.0
 12
0.0
 22
0.0
 32
0.0
 14
-1048.7074100382
 24
-1048.6955684376
 34
0.0
 15
1048.9924384529
 25
1051.1159467201
 35
0.0
146
0.0
 13
0.0
 23
0.0
 33
0.0
 16
1.0
 26
0.0
 36
0.0
 17
0.0
 27
1.0
 37
0.0
 76
     0
330
1F
331
29
  0
MLINESTYLE
  5
18
102
{ACAD_REACTORS
330
17
102
}
330
17
100
AcDbMlineStyle
  2
Standard
 70
     0
  3

 62
   256
 51
90.0
 52
90.0
 71
     2
 49
0.5
 62
   256
  6
BYLAYER
 49
-0.5
 62
   256
  6
BYLAYER
  0
ACDBPLACEHOLDER
  5
F
102
{ACAD_REACTORS
330
E
102
}
330
E
  0
SCALE
  5
48
102
{ACAD_REACTORS
330
47
102
}
330
47
100
AcDbScale
 70
     0
300
1:1
140
1.0
141
1.0
290
     1
  0
SCALE
  5
49
102
{ACAD_REACTORS
330
47
102
}
330
47
100
AcDbScale
 70
     0
300
1:2
140
1.0
141
2.0
290
     0
  0
SCALE
  5
4A
102
{ACAD_REACTORS
330
47
102
}
330
47
100
AcDbScale
 70
     0
300
1:4
140
1.0
141
4.0
290
     0
  0
SCALE
  5
4B
102
{ACAD_REACTORS
330
47
102
}
330
47
100
AcDbScale
 70
     0
300
1:5
140
1.0
141
5.0
290
     0
  0
SCALE
  5
4C
102
{ACAD_REACTORS
330
47
102
}
330
47
100
AcDbScale
 70
     0
300
1:8
140
1.0
141
8.0
290
     0
  0
SCALE
  5
4D
102
{ACAD_REACTORS
330
47
102
}
330
47
100
AcDbScale
 70
     0
300
1:10
140
1.0
141
10.0
290
     0
  0
SCALE
  5
4E
102
{ACAD_REACTORS
330
47
102
}
330
47
100
AcDbScale
 70
     0
300
1:16
140
1.0
141
16.0
290
     0
  0
SCALE
  5
4F
102
{ACAD_REACTORS
330
47
102
}
330
47
100
AcDbScale
 70
     0
300
1:20
140
1.0
141
20.0
290
     0
  0
SCALE
  5
50
102
{ACAD_REACTORS
330
47
102
}
330
47
100
AcDbScale
 70
     0
300
1:30
140
1.0
141
30.0
290
     0
  0
SCALE
  5
51
102
{ACAD_REACTORS
330
47
102
}
330
47
100
AcDbScale
 70
     0
300
1:40
140
1.0
141
40.0
290
     0
  0
SCALE
  5
52
102
{ACAD_REACTORS
330
47
102
}
330
47
100
AcDbScale
 70
     0
300
1:50
140
1.0
141
50.0
290
     0
  0
SCALE
  5
53
102
{ACAD_REACTORS
330
47
102
}
330
47
100
AcDbScale
 70
     0
300
1:100
140
1.0
141
100.0
290
     0
  0
SCALE
  5
54
102
{ACAD_REACTORS
330
47
102
}
330
47
100
AcDbScale
 70
     0
300
2:1
140
2.0
141
1.0
290
     0
  0
SCALE
  5
55
102
{ACAD_REACTORS
330
47
102
}
330
47
100
AcDbScale
 70
     0
300
4:1
140
4.0
141
1.0
290
     0
  0
SCALE
  5
56
102
{ACAD_REACTORS
330
47
102
}
330
47
100
AcDbScale
 70
     0
300
8:1
140
8.0
141
1.0
290
     0
  0
SCALE
  5
57
102
{ACAD_REACTORS
330
47
102
}
330
47
100
AcDbScale
 70
     0
300
10:1
140
10.0
141
1.0
290
     0
  0
SCALE
  5
58
102
{ACAD_REACTORS
330
47
102
}
330
47
100
AcDbScale
 70
     0
300
100:1
140
100.0
141
1.0
290
     0
  0
SCALE
  5
59
102
{ACAD_REACTORS
330
47
102
}
330
47
100
AcDbScale
 70
     0
300
1/128" = 1'-0"
140
0.0078125
141
12.0
290
     0
  0
SCALE
  5
5A
102
{ACAD_REACTORS
330
47
102
}
330
47
100
AcDbScale
 70
     0
300
1/64" = 1'-0"
140
0.015625
141
12.0
290
     0
  0
SCALE
  5
5B
102
{ACAD_REACTORS
330
47
102
}
330
47
100
AcDbScale
 70
     0
300
1/32" = 1'-0"
140
0.03125
141
12.0
290
     0
  0
SCALE
  5
5C
102
{ACAD_REACTORS
330
47
102
}
330
47
100
AcDbScale
 70
     0
300
1/16" = 1'-0"
140
0.0625
141
12.0
290
     0
  0
SCALE
  5
5D
102
{ACAD_REACTORS
330
47
102
}
330
47
100
AcDbScale
 70
     0
300
3/32" = 1'-0"
140
0.09375
141
12.0
290
     0
  0
SCALE
  5
5E
102
{ACAD_REACTORS
330
47
102
}
330
47
100
AcDbScale
 70
     0
300
1/8" = 1'-0"
140
0.125
141
12.0
290
     0
  0
SCALE
  5
5F
102
{ACAD_REACTORS
330
47
102
}
330
47
100
AcDbScale
 70
     0
300
3/16" = 1'-0"
140
0.1875
141
12.0
290
     0
  0
SCALE
  5
60
102
{ACAD_REACTORS
330
47
102
}
330
47
100
AcDbScale
 70
     0
300
1/4" = 1'-0"
140
0.25
141
12.0
290
     0
  0
SCALE
  5
61
102
{ACAD_REACTORS
330
47
102
}
330
47
100
AcDbScale
 70
     0
300
3/8" = 1'-0"
140
0.375
141
12.0
290
     0
  0
SCALE
  5
62
102
{ACAD_REACTORS
330
47
102
}
330
47
100
AcDbScale
 70
     0
300
1/2" = 1'-0"
140
0.5
141
12.0
290
     0
  0
SCALE
  5
63
102
{ACAD_REACTORS
330
47
102
}
330
47
100
AcDbScale
 70
     0
300
3/4" = 1'-0"
140
0.75
141
12.0
290
     0
  0
SCALE
  5
64
102
{ACAD_REACTORS
330
47
102
}
330
47
100
AcDbScale
 70
     0
300
1" = 1'-0"
140
1.0
141
12.0
290
     0
  0
SCALE
  5
65
102
{ACAD_REACTORS
330
47
102
}
330
47
100
AcDbScale
 70
     0
300
1-1/2" = 1'-0"
140
1.5
141
12.0
290
     0
  0
SCALE
  5
66
102
{ACAD_REACTORS
330
47
102
}
330
47
100
AcDbScale
 70
     0
300
3" = 1'-0"
140
3.0
141
12.0
290
     0
  0
SCALE
  5
67
102
{ACAD_REACTORS
330
47
102
}
330
47
100
AcDbScale
 70
     0
300
6" = 1'-0"
140
6.0
141
12.0
290
     0
  0
SCALE
  5
68
102
{ACAD_REACTORS
330
47
102
}
330
47
100
AcDbScale
 70
     0
300
1'-0" = 1'-0"
140
12.0
141
12.0
290
     0
  0
ENDSEC
  0
EOF
